<svg id="ee737ff9-2621-41eb-8f6a-3f12c08bfe4e" data-name="Black logo" xmlns="http://www.w3.org/2000/svg" viewBox="0 0 112.6 24.61"><defs><style>.b64432b2-2e0e-4a32-b16a-0bfb7fcc1e4b{fill:#222;}.f7c3ad49-9b1a-4c4f-9c76-6c6d1ced8082{fill:#0bba48;}</style></defs><g id="a4656777-ebc5-41de-aa85-0b28e4820299" data-name="logo part"><path class="b64432b2-2e0e-4a32-b16a-0bfb7fcc1e4b" d="M1.29,24.44A1.23,1.23,0,0,1,0,23.27V2.3A1.23,1.23,0,0,1,1.17,1H7.29a8,8,0,0,1,3.94,1,6.94,6.94,0,0,1,2.69,2.71,8.08,8.08,0,0,1,1,4,7.74,7.74,0,0,1-1,3.88,6.84,6.84,0,0,1-2.69,2.67,7.76,7.76,0,0,1-3.94,1H2.58V23.2a1.22,1.22,0,0,1-1.22,1.24ZM2.58,13.76H7.29a5.2,5.2,0,0,0,2.62-.65,4.61,4.61,0,0,0,1.82-1.79,5.14,5.14,0,0,0,.66-2.63A5.63,5.63,0,0,0,11.75,6,4.9,4.9,0,0,0,9.93,4.11a5.19,5.19,0,0,0-2.64-.67H2.58Z" transform="translate(0 -0.01)"/><path class="b64432b2-2e0e-4a32-b16a-0bfb7fcc1e4b" d="M19.41,24.44a1.15,1.15,0,0,1-1.26-1,.89.89,0,0,1,0-.23V9.29a1.15,1.15,0,0,1,1-1.26h.23a1.21,1.21,0,0,1,.91.33,1.32,1.32,0,0,1,.32.93V23.18a1.32,1.32,0,0,1-.32.93A1.21,1.21,0,0,1,19.41,24.44Zm-.15-10.17A6.7,6.7,0,0,1,20.2,11a6.5,6.5,0,0,1,2.34-2.29,6.3,6.3,0,0,1,3.2-.84,4.75,4.75,0,0,1,2.32.45,1,1,0,0,1,.59,1.23.93.93,0,0,1-.38.6,1.28,1.28,0,0,1-.66.18,6.07,6.07,0,0,1-.85-.06,7.41,7.41,0,0,0-3.14.23,4.47,4.47,0,0,0-2.17,1.42,3.65,3.65,0,0,0-.81,2.37Z" transform="translate(0 -0.01)"/><path class="f7c3ad49-9b1a-4c4f-9c76-6c6d1ced8082" d="M39.63,24.59a8.45,8.45,0,0,1-4.31-1.08,7.8,7.8,0,0,1-3-3,8.47,8.47,0,0,1-1.08-4.29,8.48,8.48,0,0,1,1.08-4.32,7.8,7.8,0,0,1,3-3,9,9,0,0,1,8.57,0,7.91,7.91,0,0,1,2.94,3,8.72,8.72,0,0,1,1.11,4.32,8.47,8.47,0,0,1-1.08,4.29,7.86,7.86,0,0,1-3,3A8.36,8.36,0,0,1,39.63,24.59Zm0-2.28a5.61,5.61,0,0,0,5.07-2.95,6.38,6.38,0,0,0,.75-3.11,6.39,6.39,0,0,0-.75-3.12A5.7,5.7,0,0,0,42.63,11a6.09,6.09,0,0,0-6,0,5.71,5.71,0,0,0-2.1,2.18,6.29,6.29,0,0,0-.76,3.12,6.26,6.26,0,0,0,.76,3.11,5.72,5.72,0,0,0,5.12,2.95Z" transform="translate(0 -0.01)"/><path class="f7c3ad49-9b1a-4c4f-9c76-6c6d1ced8082" d="M60.72,24.59a8.14,8.14,0,0,1-7.16-4.07,8.4,8.4,0,0,1-1.12-4.21v-14a1.26,1.26,0,0,1,.37-.95,1.31,1.31,0,0,1,1-.35,1.23,1.23,0,0,1,.91.35,1.26,1.26,0,0,1,.35.94v8.58A7.45,7.45,0,0,1,57.65,8.7,8.1,8.1,0,0,1,65.27,9a7.77,7.77,0,0,1,2.83,3,8.77,8.77,0,0,1,1,4.26A8.49,8.49,0,0,1,68,20.53a8,8,0,0,1-3,3A8.2,8.2,0,0,1,60.72,24.59Zm0-2.28a5.71,5.71,0,0,0,5.09-3,6.23,6.23,0,0,0,.77-3.1,6.3,6.3,0,0,0-.77-3.09A5.71,5.71,0,0,0,63.71,11a6.09,6.09,0,0,0-6,0,5.59,5.59,0,0,0-2.08,2.18,6.28,6.28,0,0,0-.75,3.09,6.32,6.32,0,0,0,.75,3.1,5.71,5.71,0,0,0,2.18,2.18A5.62,5.62,0,0,0,60.72,22.31Z" transform="translate(0 -0.01)"/><path class="b64432b2-2e0e-4a32-b16a-0bfb7fcc1e4b" d="M75.3,5.06a1.59,1.59,0,0,1-1.23-.53,1.7,1.7,0,0,1-.51-1.24,1.55,1.55,0,0,1,.52-1.23,1.79,1.79,0,0,1,1.22-.48,1.76,1.76,0,0,1,1.21.48A1.59,1.59,0,0,1,77,3.29a1.7,1.7,0,0,1-.51,1.24A1.59,1.59,0,0,1,75.3,5.06Zm0,19.38a1.32,1.32,0,0,1-.93-.34,1.25,1.25,0,0,1-.36-1V9.32a1.27,1.27,0,0,1,.36-1A1.32,1.32,0,0,1,75.3,8a1.28,1.28,0,0,1,.91.34,1.31,1.31,0,0,1,.35,1V23.15a1.19,1.19,0,0,1-1.23,1.29Z" transform="translate(0 -0.01)"/><path class="b64432b2-2e0e-4a32-b16a-0bfb7fcc1e4b" d="M83.64,24.44a1.17,1.17,0,0,1-1.23-1.23v-21a1.19,1.19,0,0,1,.34-.88,1.33,1.33,0,0,1,1.8,0,1.2,1.2,0,0,1,.35.88v21a1.24,1.24,0,0,1-.35.89A1.27,1.27,0,0,1,83.64,24.44Zm1-5.64-1.53-1.68,9.93-9a1.06,1.06,0,0,1,.77-.3,1.19,1.19,0,0,1,.8.42,1.09,1.09,0,0,1,.33.82,1.19,1.19,0,0,1-.42.8Zm10,5.49a1.17,1.17,0,0,1-.89.32,1.15,1.15,0,0,1-.79-.47l-6.51-8,1.77-1.62,6.59,8.12a1.13,1.13,0,0,1,.3.84,1.16,1.16,0,0,1-.49.81Z" transform="translate(0 -0.01)"/><path class="b64432b2-2e0e-4a32-b16a-0bfb7fcc1e4b" d="M105.57,24.59a8.69,8.69,0,0,1-4.35-1.07,7.66,7.66,0,0,1-3-2.95,8.48,8.48,0,0,1-1.08-4.32,9,9,0,0,1,1-4.34,7.52,7.52,0,0,1,6.93-4.08,7.56,7.56,0,0,1,4,1,7,7,0,0,1,2.61,2.87,9.27,9.27,0,0,1,.92,4.17,1.09,1.09,0,0,1-.33.82,1.19,1.19,0,0,1-.84.32H98.91V15H111.6l-1.29.9a6.61,6.61,0,0,0-.6-3,4.89,4.89,0,0,0-1.8-2.07,5,5,0,0,0-2.79-.75,5.57,5.57,0,0,0-3,.78,5,5,0,0,0-1.94,2.17,7.07,7.07,0,0,0-.68,3.17,6.29,6.29,0,0,0,.78,3.15,5.62,5.62,0,0,0,2.14,2.16,6.25,6.25,0,0,0,3.14.78,6.68,6.68,0,0,0,2.08-.36,5.15,5.15,0,0,0,1.7-.9,1.35,1.35,0,0,1,.82-.28,1,1,0,0,1,.77.25,1.17,1.17,0,0,1,.46.84.91.91,0,0,1-.4.78A7.85,7.85,0,0,1,108.47,24,8.74,8.74,0,0,1,105.57,24.59Z" transform="translate(0 -0.01)"/><path id="bd93d162-4c9e-470a-9e60-0e59acf6cadd" data-name="Black logo Rectangle 2" class="f7c3ad49-9b1a-4c4f-9c76-6c6d1ced8082" d="M45.81,11.49l7.72-2.05a1,1,0,0,1,1.22.71h0a1,1,0,0,1-.7,1.23h0l-7.73,2.06a1,1,0,0,1-1.23-.7h0a1,1,0,0,1,.69-1.23Z" transform="translate(0 -0.01)"/><path id="b871b4f7-fc95-4064-a7fc-0ac33ab5b7a2" data-name="Black logo Rectangle 1" class="f7c3ad49-9b1a-4c4f-9c76-6c6d1ced8082" d="M48.24,0l5.91,1A1,1,0,0,1,55,2.18h0A1,1,0,0,1,53.83,3h0l-5.9-1A1,1,0,0,1,47.09.88h0A1,1,0,0,1,48.22,0Z" transform="translate(0 -0.01)"/></g></svg>